<?xml version="1.0" encoding="utf-8"?>
<!-- Generator: Adobe Illustrator 17.0.0, SVG Export Plug-In . SVG Version: 6.00 Build 0)  -->
<!DOCTYPE svg PUBLIC "-//W3C//DTD SVG 1.1//EN" "http://www.w3.org/Graphics/SVG/1.1/DTD/svg11.dtd">
<svg version="1.1" id="Слой_1" xmlns="http://www.w3.org/2000/svg" xmlns:xlink="http://www.w3.org/1999/xlink" x="0px" y="0px"
	 width="1683.029px" height="289.986px" viewBox="0 0 1683.029 289.986" enable-background="new 0 0 1683.029 289.986"
	 xml:space="preserve">
<g id="Layer_1">
	<g>
		<path fill="#FFFFFF" d="M473.366,141.182v22.709h-85.413V43.229h26.438v97.954L473.366,141.182L473.366,141.182z"/>
		<path fill="#FFFFFF" d="M578.943,43.229v21.692h-64.229v26.268h58.975v20.845h-58.975v29.658h65.415v22.2h-91.683V43.229H578.943z
			"/>
		<path fill="#FFFFFF" d="M658.254,43.059l45.926,120.833h-27.793l-9.49-26.946h-44.91l-9.829,26.946h-27.115l45.926-120.833
			H658.254z M660.457,117.626l-15.93-44.909l-16.1,44.909C628.427,117.626,660.457,117.626,660.457,117.626z"/>
		<path fill="#FFFFFF" d="M714.518,163.892V43.229h48.807c18.753,0,33.187,5.198,43.3,15.591
			c10.11,10.396,15.167,25.31,15.167,44.74c0,19.434-5.058,34.347-15.167,44.741c-10.113,10.396-24.547,15.591-43.3,15.591H714.518z
			 M740.786,141.861h19.319c23.387,0,35.08-12.766,35.08-38.3c0-12.313-2.91-21.777-8.728-28.386
			c-5.82-6.609-14.604-9.914-26.353-9.914h-19.319v76.6H740.786z"/>
		<path fill="#FFFFFF" d="M930.421,43.229v21.692h-64.229v26.268h58.975v20.845h-58.975v29.658h65.415v22.2h-91.683V43.229H930.421z
			"/>
		<path fill="#FFFFFF" d="M950.757,43.229h59.992c11.975,0,21.748,2.826,29.318,8.474c7.568,5.651,11.354,14.235,11.354,25.759
			c0,7.007-1.693,13.134-5.084,18.388c-3.389,5.254-8.078,9.011-14.065,11.27c10.394,2.147,16.325,11.524,17.794,28.132
			c0,0.567,0.111,2.317,0.34,5.254c0.225,2.94,0.449,5.283,0.678,7.034c0.225,1.753,0.508,3.871,0.848,6.354
			c0.338,2.486,0.847,4.576,1.524,6.271c0.679,1.695,1.468,2.939,2.372,3.729h-27.453c-0.906-1.806-1.584-4.094-2.033-6.863
			c-0.453-2.768-0.848-6.326-1.188-10.677c-0.338-4.348-0.508-6.75-0.508-7.203c-0.906-8.474-3.023-14.347-6.355-17.625
			c-3.334-3.275-9.236-4.915-17.709-4.915h-23.557v47.283h-26.268V43.229z M977.025,64.074V97.46h25.082
			c7.342,0,13.075-1.158,17.201-3.475c4.123-2.314,6.186-6.863,6.186-13.642c0-6.326-2.008-10.619-6.017-12.88
			c-4.012-2.259-9.405-3.39-16.185-3.39L977.025,64.074L977.025,64.074z"/>
		<path fill="#FFFFFF" d="M1208.517,79.157h-25.08c-1.018-11.974-8.645-17.964-22.879-17.964c-6.102,0-10.875,1.215-14.32,3.644
			c-3.447,2.431-5.17,5.791-5.17,10.083c0,1.47,0.227,2.77,0.678,3.898c0.451,1.131,1.299,2.177,2.543,3.135
			c1.242,0.961,2.484,1.753,3.729,2.373c1.242,0.622,3.076,1.3,5.508,2.034c2.428,0.736,4.631,1.385,6.609,1.949
			c1.975,0.567,4.771,1.3,8.389,2.203c3.615,0.906,6.779,1.753,9.49,2.542c11.863,3.39,20.701,7.626,26.521,12.71
			c5.818,5.084,8.729,12.371,8.729,21.861c0,6.893-1.414,12.909-4.236,18.049c-2.826,5.143-6.639,9.209-11.439,12.201
			c-4.805,2.995-10.057,5.198-15.762,6.609c-5.705,1.412-11.777,2.119-18.217,2.119c-16.383,0-29.179-3.755-38.386-11.271
			c-9.21-7.512-13.87-18.104-13.981-31.776h26.268c0.451,15.142,9.547,22.709,27.285,22.709c6.891,0,12.342-1.44,16.354-4.321
			c4.01-2.881,6.016-6.806,6.016-11.779c0-4.179-1.836-7.229-5.508-9.151c-3.672-1.92-11.383-4.575-23.131-7.965
			c-0.68-0.111-1.188-0.226-1.525-0.339c-0.34-0.111-0.793-0.254-1.357-0.424c-0.566-0.17-1.074-0.31-1.523-0.424
			c-4.068-1.128-6.893-1.949-8.475-2.457c-1.584-0.509-4.096-1.383-7.541-2.627c-3.447-1.242-5.961-2.372-7.541-3.39
			c-1.584-1.017-3.533-2.428-5.848-4.236c-2.316-1.806-3.982-3.699-4.999-5.677c-1.017-1.976-1.948-4.406-2.796-7.287
			c-0.848-2.881-1.271-6.016-1.271-9.406c0-10.957,4.236-19.714,12.711-26.268c8.473-6.551,19.713-9.83,33.725-9.83
			c13.557,0,24.629,3.193,33.215,9.575C1203.884,56.646,1208.291,66.277,1208.517,79.157z"/>
		<path fill="#FFFFFF" d="M1229.361,43.229h52.026c13.558,0,24.319,3.249,32.284,9.745c7.965,6.498,11.948,16.185,11.948,29.064
			c0,12.655-3.956,22.23-11.863,28.725c-7.909,6.498-18.247,9.745-31.013,9.745h-27.115v43.384h-26.268L1229.361,43.229
			L1229.361,43.229z M1255.628,64.921v34.742h23.556c13.783,0,20.676-5.763,20.676-17.287c0-11.635-6.837-17.455-20.506-17.455
			C1279.354,64.921,1255.628,64.921,1255.628,64.921z"/>
		<path fill="#FFFFFF" d="M1396.795,40.348c17.625,0,31.887,5.847,42.791,17.54c10.901,11.693,16.354,26.975,16.354,45.841
			c0,18.87-5.452,34.093-16.354,45.673c-10.904,11.582-25.225,17.37-42.961,17.37c-17.853,0-32.257-5.788-43.215-17.37
			c-10.959-11.581-16.438-26.803-16.438-45.673c0-19.091,5.45-34.428,16.354-46.011
			C1364.228,46.139,1378.717,40.348,1396.795,40.348z M1396.457,62.04c-9.943,0-17.879,3.728-23.811,11.185
			s-8.897,17.456-8.897,29.997c0,12.993,2.937,23.161,8.812,30.504c5.873,7.346,13.952,11.075,24.234,11.186
			c10.055,0,17.964-3.729,23.726-11.186c5.762-7.456,8.643-17.624,8.643-30.504c0-12.652-2.938-22.68-8.812-30.081
			C1414.476,65.742,1406.51,62.04,1396.457,62.04z"/>
		<path fill="#FFFFFF" d="M1475.09,43.229h59.992c11.975,0,21.748,2.826,29.318,8.474c7.568,5.651,11.354,14.235,11.354,25.759
			c0,7.007-1.694,13.134-5.084,18.388s-8.079,9.011-14.065,11.27c10.393,2.147,16.324,11.524,17.794,28.132
			c0,0.567,0.111,2.317,0.339,5.254c0.225,2.94,0.45,5.283,0.678,7.034c0.226,1.753,0.509,3.871,0.848,6.354
			c0.339,2.486,0.848,4.576,1.525,6.271c0.678,1.695,1.467,2.939,2.372,3.729h-27.454c-0.905-1.806-1.583-4.094-2.033-6.863
			c-0.453-2.768-0.848-6.326-1.187-10.677c-0.339-4.348-0.509-6.75-0.509-7.203c-0.905-8.474-3.023-14.347-6.354-17.625
			c-3.334-3.275-9.236-4.915-17.71-4.915h-23.557v47.283h-26.268L1475.09,43.229L1475.09,43.229z M1501.358,64.074V97.46h25.082
			c7.343,0,13.075-1.158,17.201-3.475c4.123-2.314,6.186-6.863,6.186-13.642c0-6.326-2.007-10.619-6.017-12.88
			c-4.011-2.259-9.405-3.39-16.184-3.39L1501.358,64.074L1501.358,64.074z"/>
		<path fill="#FFFFFF" d="M1683.029,43.229v22.54h-36.267v98.124h-26.606V65.768h-36.267v-22.54h99.14L1683.029,43.229
			L1683.029,43.229z"/>
	</g>
	<text transform="matrix(1 0 0 1 384.9531 246.1309)" fill="#FFFFFF" font-family="'Roboto-Light'" font-size="69.5815">SPORT AND EMOTIONS</text>
	<path fill="#637AAD" d="M24.88,14.233L-2.073,40.594L104.261,147.52v127.714c0,0,12.529,4.76,38.817,5.969V132.415L24.88,14.233z"
		/>
	<path fill="#637AAD" d="M265.702,14.233l26.954,26.361L186.322,147.521v127.714c0,0-12.529,4.76-38.817,5.969V132.415
		L265.702,14.233z"/>
	<g>
		<g>
			<path fill="#FFFFFF" d="M17.688,67.933l29.577,29.742c-4.66,11.867-7.872,25.663-7.872,39.183
				c0,41.926,24.61,78.098,60.17,94.875v42.306C41.772,255.227,0,200.925,0,136.858C0,112.247,6.821,88.205,17.688,67.933z"/>
		</g>
	</g>
	<g>
		<g>
			<path fill="#FFFFFF" d="M272.894,67.933l-29.577,29.742c4.66,11.867,7.872,25.663,7.872,39.183
				c0,41.926-24.61,78.098-60.17,94.875v42.306c57.791-18.812,99.563-73.114,99.563-137.181
				C290.583,112.247,283.762,88.205,272.894,67.933z"/>
		</g>
	</g>
	<circle fill="#FFFFFF" cx="145.447" cy="45.572" r="45.572"/>
</g>
<g id="Слой_2">
</g>
</svg>
