<?xml version="1.0" encoding="utf-8"?>
<!-- Generator: Adobe Illustrator 17.0.0, SVG Export Plug-In . SVG Version: 6.00 Build 0)  -->
<!DOCTYPE svg PUBLIC "-//W3C//DTD SVG 1.1//EN" "http://www.w3.org/Graphics/SVG/1.1/DTD/svg11.dtd">
<svg version="1.1" id="Слой_1" xmlns="http://www.w3.org/2000/svg" xmlns:xlink="http://www.w3.org/1999/xlink" x="0px" y="0px"
	 width="294.729px" height="281.204px" viewBox="-2.073 0 294.729 281.204" enable-background="new -2.073 0 294.729 281.204"
	 xml:space="preserve">
<g id="Layer_1">
	<path fill="#637AAD" d="M24.88,14.233L-2.073,40.594L104.261,147.52v127.714c0,0,12.529,4.76,38.817,5.969V132.415L24.88,14.233z"
		/>
	<path fill="#637AAD" d="M265.702,14.233l26.954,26.361L186.322,147.521v127.714c0,0-12.529,4.76-38.817,5.969V132.415
		L265.702,14.233z"/>
	<g>
		<g>
			<path fill="#FFFFFF" d="M17.688,67.933l29.577,29.742c-4.66,11.867-7.872,25.663-7.872,39.183
				c0,41.926,24.61,78.098,60.17,94.875v42.306C41.772,255.227,0,200.925,0,136.858C0,112.247,6.821,88.205,17.688,67.933z"/>
		</g>
	</g>
	<g>
		<g>
			<path fill="#FFFFFF" d="M272.894,67.933l-29.577,29.742c4.66,11.867,7.872,25.663,7.872,39.183
				c0,41.926-24.61,78.098-60.17,94.875v42.306c57.791-18.812,99.563-73.114,99.563-137.181
				C290.583,112.247,283.762,88.205,272.894,67.933z"/>
		</g>
	</g>
	<circle fill="#FFFFFF" cx="145.447" cy="45.572" r="45.572"/>
</g>
<g id="Слой_2">
</g>
</svg>
