<?xml version="1.0" encoding="iso-8859-1"?>
<!-- Generator: Adobe Illustrator 19.0.0, SVG Export Plug-In . SVG Version: 6.00 Build 0)  -->
<svg version="1.1" id="Capa_1" xmlns="http://www.w3.org/2000/svg" xmlns:xlink="http://www.w3.org/1999/xlink" x="0px" y="0px"
	 viewBox="0 0 512 512" style="enable-background:new 0 0 512 512;" xml:space="preserve">
<g>
	<g>
		<path d="M506.57,92.315L262.982,0.776c-1.552-0.776-3.879-0.776-5.43,0L5.43,92.315C2.327,93.091,0,96.194,0,99.297v72.921
			c0,3.103,2.327,6.206,4.655,6.982l11.636,4.655v224.97c0,3.103,1.552,6.206,4.655,6.982l235.83,95.418
			c1.552,0.776,3.879,0.776,5.43,0l227.297-87.661c3.103-0.776,4.655-3.879,4.655-6.982v-230.4l12.412-4.655
			c3.103-1.552,4.654-3.879,4.654-6.982V99.297c0.776,0,0.776,0,0.776,0C512,96.194,509.673,93.091,506.57,92.315z M252.121,492.606
			L31.806,403.394V190.061l220.315,84.558V492.606z M252.121,258.327L15.515,167.564v-56.63l236.606,92.315V258.327z
			 M259.879,189.285l-230.4-89.212l230.4-83.782l222.642,83.782C397.188,134.206,341.333,156.703,259.879,189.285z M479.418,411.152
			l-211.782,81.455V275.394l211.782-83.782V411.152z M496.485,168.339c-19.394,7.758-205.576,81.455-228.849,90.764v-55.855
			l228.849-92.315V168.339z" fill="#0f8b8d"/>
	</g>
</g>
<g>
</g>
<g>
</g>
<g>
</g>
<g>
</g>
<g>
</g>
<g>
</g>
<g>
</g>
<g>
</g>
<g>
</g>
<g>
</g>
<g>
</g>
<g>
</g>
<g>
</g>
<g>
</g>
<g>
</g>
</svg>
