<?xml version="1.0" encoding="iso-8859-1"?>
<!-- Generator: Adobe Illustrator 19.0.0, SVG Export Plug-In . SVG Version: 6.00 Build 0)  -->
<svg xmlns="http://www.w3.org/2000/svg" xmlns:xlink="http://www.w3.org/1999/xlink" version="1.1" id="Layer_1" x="0px" y="0px" viewBox="0 0 152.878 152.878" style="enable-background:new 0 0 152.878 152.878;" xml:space="preserve" width="512px" height="512px">
<g>
	<g>
		<g>
			<path d="M151.946,44.538c-0.658-0.706-1.578-1.106-2.541-1.106h-14.43L128.51,4.639c-0.278-1.674-1.727-2.903-3.427-2.903H27.795     c-1.7,0-3.149,1.228-3.427,2.903l-6.465,38.792H3.473c-0.964,0-1.883,0.4-2.541,1.106s-0.991,1.651-0.923,2.613l7.119,100.763     c0.125,1.82,1.639,3.23,3.464,3.23h131.694c1.826,0,3.339-1.41,3.465-3.23L152.87,47.15     C152.937,46.189,152.605,45.244,151.946,44.538z M30.736,8.686h91.404l5.789,34.746H24.948L30.736,8.686z M139.049,144.194     H13.829L7.202,50.381h13.644h111.186h13.644L139.049,144.194z" fill="#FFFFFF"/>
			<rect x="104.236" y="71.228" width="6.949" height="55.593" fill="#FFFFFF"/>
			<rect x="72.964" y="71.228" width="6.949" height="55.593" fill="#FFFFFF"/>
			<rect x="41.693" y="71.228" width="6.949" height="55.593" fill="#FFFFFF"/>
		</g>
	</g>
</g>
<g>
</g>
<g>
</g>
<g>
</g>
<g>
</g>
<g>
</g>
<g>
</g>
<g>
</g>
<g>
</g>
<g>
</g>
<g>
</g>
<g>
</g>
<g>
</g>
<g>
</g>
<g>
</g>
<g>
</g>
</svg>
